<mxfile host="app.diagrams.net" agent="Mozilla/5.0 (Macintosh; Intel Mac OS X 10_15_7) AppleWebKit/537.36 (KHTML, like Gecko) Chrome/137.0.0.0 Safari/537.36" version="27.1.4">
  <diagram id="prtHgNgQTEPvFCAcTncT" name="Page-1">
    <mxGraphModel dx="1298" dy="706" grid="1" gridSize="10" guides="1" tooltips="1" connect="1" arrows="1" fold="1" page="1" pageScale="1" pageWidth="827" pageHeight="1169" math="0" shadow="0">
      <root>
        <mxCell id="0" />
        <mxCell id="1" parent="0" />
        <mxCell id="RIoDaQZKYCjl1vpLcFS1-7" style="edgeStyle=orthogonalEdgeStyle;rounded=0;orthogonalLoop=1;jettySize=auto;html=1;exitX=0.5;exitY=1;exitDx=0;exitDy=0;entryX=0.5;entryY=0;entryDx=0;entryDy=0;" edge="1" parent="1" source="ATmyhmWioNRk18st5TbV-1" target="RIoDaQZKYCjl1vpLcFS1-1">
          <mxGeometry relative="1" as="geometry" />
        </mxCell>
        <mxCell id="ATmyhmWioNRk18st5TbV-1" value="开始" style="ellipse;whiteSpace=wrap;html=1;fillColor=none;" parent="1" vertex="1">
          <mxGeometry x="310" y="80" width="120" height="80" as="geometry" />
        </mxCell>
        <mxCell id="RIoDaQZKYCjl1vpLcFS1-8" style="edgeStyle=orthogonalEdgeStyle;rounded=0;orthogonalLoop=1;jettySize=auto;html=1;exitX=0.5;exitY=1;exitDx=0;exitDy=0;entryX=0.5;entryY=0;entryDx=0;entryDy=0;" edge="1" parent="1" source="RIoDaQZKYCjl1vpLcFS1-1" target="RIoDaQZKYCjl1vpLcFS1-2">
          <mxGeometry relative="1" as="geometry" />
        </mxCell>
        <mxCell id="RIoDaQZKYCjl1vpLcFS1-1" value="获取当前组网版本" style="rounded=1;whiteSpace=wrap;html=1;fillColor=none;" vertex="1" parent="1">
          <mxGeometry x="310" y="210" width="120" height="60" as="geometry" />
        </mxCell>
        <mxCell id="RIoDaQZKYCjl1vpLcFS1-9" style="edgeStyle=orthogonalEdgeStyle;rounded=0;orthogonalLoop=1;jettySize=auto;html=1;exitX=0.5;exitY=1;exitDx=0;exitDy=0;entryX=0.5;entryY=0;entryDx=0;entryDy=0;" edge="1" parent="1" source="RIoDaQZKYCjl1vpLcFS1-2" target="RIoDaQZKYCjl1vpLcFS1-3">
          <mxGeometry relative="1" as="geometry" />
        </mxCell>
        <mxCell id="RIoDaQZKYCjl1vpLcFS1-2" value="查询组网版本对应的明细" style="rounded=1;whiteSpace=wrap;html=1;fillColor=none;" vertex="1" parent="1">
          <mxGeometry x="310" y="320" width="120" height="60" as="geometry" />
        </mxCell>
        <mxCell id="RIoDaQZKYCjl1vpLcFS1-10" style="edgeStyle=orthogonalEdgeStyle;rounded=0;orthogonalLoop=1;jettySize=auto;html=1;exitX=0.5;exitY=1;exitDx=0;exitDy=0;entryX=0.5;entryY=0;entryDx=0;entryDy=0;" edge="1" parent="1" source="RIoDaQZKYCjl1vpLcFS1-3" target="RIoDaQZKYCjl1vpLcFS1-4">
          <mxGeometry relative="1" as="geometry" />
        </mxCell>
        <mxCell id="RIoDaQZKYCjl1vpLcFS1-3" value="&lt;div&gt;1. 生成batchNum&lt;/div&gt;2.将明细模拟询价" style="rounded=1;whiteSpace=wrap;html=1;fillColor=none;" vertex="1" parent="1">
          <mxGeometry x="310" y="430" width="120" height="60" as="geometry" />
        </mxCell>
        <mxCell id="RIoDaQZKYCjl1vpLcFS1-11" style="edgeStyle=orthogonalEdgeStyle;rounded=0;orthogonalLoop=1;jettySize=auto;html=1;exitX=0.5;exitY=1;exitDx=0;exitDy=0;entryX=0.5;entryY=0;entryDx=0;entryDy=0;" edge="1" parent="1" source="RIoDaQZKYCjl1vpLcFS1-4" target="RIoDaQZKYCjl1vpLcFS1-6">
          <mxGeometry relative="1" as="geometry" />
        </mxCell>
        <mxCell id="RIoDaQZKYCjl1vpLcFS1-4" value="&lt;div&gt;通知缓存预热&lt;/div&gt;" style="rounded=1;whiteSpace=wrap;html=1;fillColor=none;" vertex="1" parent="1">
          <mxGeometry x="310" y="540" width="120" height="60" as="geometry" />
        </mxCell>
        <mxCell id="RIoDaQZKYCjl1vpLcFS1-6" value="结束" style="ellipse;whiteSpace=wrap;html=1;fillColor=none;" vertex="1" parent="1">
          <mxGeometry x="310" y="640" width="120" height="80" as="geometry" />
        </mxCell>
      </root>
    </mxGraphModel>
  </diagram>
</mxfile>
